<?xml version="1.0" encoding="utf-8"?>
<!-- Generator: Adobe Illustrator 17.1.0, SVG Export Plug-In . SVG Version: 6.00 Build 0)  -->
<!DOCTYPE svg PUBLIC "-//W3C//DTD SVG 1.1//EN" "http://www.w3.org/Graphics/SVG/1.1/DTD/svg11.dtd">
<svg version="1.1" xmlns="http://www.w3.org/2000/svg" xmlns:xlink="http://www.w3.org/1999/xlink" x="0px" y="0px"
	 viewBox="0 0 923.6 906.5" enable-background="new 0 0 923.6 906.5" xml:space="preserve">
<g id="Lager_2">
	<rect x="-0.3" y="0.4" fill="#CE0054" width="924" height="906"/>
</g>
<g id="Lager_1">
	<g>
		<g transform="translate(-260,-150)">
			<g>
				<path fill="#FFFFFF" d="M969.8,798.6c-22.4,6-46.3,7.9-68,15.3c36.8-31.6,34.7-80.4,59.3-117.6c7.8-10.5,14.3-21.6,23.4-31.6
					c-14.9,30-8.5,68.9-25.6,98c-6.6,11.6-16.1,22.8-26.5,31.8c3.4-0.1,6.4-3.1,9.4-5.1c27.9-27.8,64.3-35.6,94.5-58.2
					c12.1-9.6,23.2-22.2,28.5-35.9C1059,741.5,1013.1,784.8,969.8,798.6L969.8,798.6z"/>
				<path fill="#FFFFFF" d="M1070.3,611.6c-13.6,19.4-30.2,37.5-42.8,57.2c1.4-15.6,3.3-34.8-2.8-49.6
					c-10.5-31.9-19.8-64.2-22.8-99.2l0.4-13.4c7.9,35.7,43,60.3,40.8,100.3c0.8,9.7-2.2,18-4,26.5l0.6,0.6l1.6-1.8
					c5.2-19.7,7.8-40.3,15.9-58.7c11.5-26.4,25.9-53,20-84.9C1094.7,526.4,1089.4,576.5,1070.3,611.6L1070.3,611.6z"/>
				<path fill="#FFFFFF" d="M1048.8,409.3c23,31.2,28,80.9,11.3,116.6c-6.2,15.2-10.7,31.3-13.1,48.1c-1.2-2.9-1.4-6.8-2.5-10
					c-9.2-35-42.3-60-55.9-93c-4.3-10.8-8-21.9-10-33.7c14.5,26.9,50.4,40.8,60.2,70.5c4,7.5,3.8,16.9,6.3,24.9c0.5,0,1-0.4,1-0.9
					c-4.3-30.5-3-62.5,1.2-92.7c-0.2-16.3-1.8-32.2-10.9-44.8C1042.1,397.7,1044.7,404.2,1048.8,409.3L1048.8,409.3z"/>
				<path fill="#FFFFFF" d="M1032.5,403.3c6,27.3-2.8,53.9,2.8,81.5l-0.2,0.2c-14.9-29.2-46.4-43-68.1-66.4
					c-12.6-13.9-18.1-30.8-21.2-48.7c12.4,30,46,36.6,65.3,61.9c6.4,5.8,8.6,13.9,12.7,20.5l0.7-0.7c-11.1-23.7-14.8-50.3-22.5-75.5
					c-3.9-10.9-11.6-21.7-21.9-28.6C1005.3,352.7,1027.3,379.1,1032.5,403.3L1032.5,403.3z"/>
				<path fill="#FFFFFF" d="M964.9,340.6c19.1,17.1,27.7,39.1,33.2,62l3.1,7.3c-27.7-19.9-52.8-46.6-70.4-74.9l-21.6-21.8
					C928.2,321.2,948.7,326,964.9,340.6L964.9,340.6z"/>
				<path fill="#FFFFFF" d="M528.1,316.8c-19.1,16.8-32.4,38-46.6,57.7c-12.7,15.7-29,26.1-43.4,39.7c7.8-16.1,8.1-35.4,19.1-50.2
					C473,336.6,502.1,327,528.1,316.8L528.1,316.8z"/>
				<path fill="#FFFFFF" d="M423.5,375.2c9.3-11.6,21.1-19.6,34.4-23c-25.8,17.7-24.1,49.4-32.2,75.8c-2.6,9.7-7.1,18.7-9.4,28.7
					l0.7,0.5c4.3-11.3,11.8-22,21.2-31.2c18.3-16.9,45.4-27.4,54.3-52.4c-0.4,34.7-29.4,62-57.1,81.5c-11.4,10-22.4,21.4-28.7,34.3
					c-0.6-8.8,1.3-17.6,0.7-26.9C404.3,432.2,402.1,397.7,423.5,375.2L423.5,375.2z"/>
				<path fill="#FFFFFF" d="M371.4,478.8c-0.8-30.7,12-55.8,29.9-78.7c0.5-0.3,0.9-0.8,1.6-0.7c-19.8,30-3.4,67.9-4.3,102l-2.6,35
					c0.4,0.3,0.4,1.3,1.3,0.9c1.2-3.9,1.4-8.1,2.2-12.1c4.7-28.2,29.2-48.2,50.6-67.7c4.6-5.1,8.6-10.3,11-16.3
					c-1.7,14-6.2,28.2-12,41.2c-16.7,32.5-47.4,59.1-53,96.3C393.3,543.2,369,516.6,371.4,478.8L371.4,478.8z"/>
				<path fill="#FFFFFF" d="M356.5,522.5c2.2-9.6,3.9-19.5,8.1-28.4c-7.9,40.6,19.4,69.8,28.3,105c3.7,13.2,4.7,27.3,10,39.6
					c0.5,0.3,0.9-0.3,1.2-0.6c-13.3-37.4,5.9-72.1,25.3-101.4c4.7-7.9,7.4-16.8,9.8-25.9c2.1,16.9-2.2,36.4-4.7,54
					c-4.7,22.3-11.7,43.5-17.8,65.2c-4,13.6-3,28.8-0.9,43l-1.9-1.5c-14.2-26.2-42.3-46.6-50.6-75.1
					C356.4,573.7,351.8,547.3,356.5,522.5L356.5,522.5z"/>
				<path fill="#FFFFFF" d="M355.2,601.8c3.1,43,49.4,65.8,70.8,101.4c5.1,7.3,9.5,15.4,16.3,21.5c-1.1-4.6-5.3-8.4-6.9-13.1
					c-7.5-14.9-10.2-32.7-8.4-50.8c2.1-22,11.3-42.4,7.8-65.5c18.8,40.6,13.1,91.4,23.7,135.4c2.8,9.6,8.3,18.2,12,27.4
					c-38.7-26.4-91.5-51.5-108.7-99.8C354.4,641.5,353.6,620.9,355.2,601.8L355.2,601.8z"/>
				<path fill="#FFFFFF" d="M378.3,700.6c21.6,48.8,75.7,52.9,111.9,82.6c6.7,5.9,13.7,10.9,21.2,14.5l0.4-0.4
					c-8.3-7.5-18-16.1-23.8-25.9c-21.2-29.5-13.8-70.8-29.7-102.6c14.4,17.3,27.6,35.2,36.3,54.8c13,32,17.9,68.1,47.9,92.3
					c-32.5-10.7-70.5-7.7-99.2-27.7C412.1,769.1,384.2,736.4,378.3,700.6L378.3,700.6z"/>
				<path fill="#FFFFFF" d="M433.8,791.7c34.6,39.4,91.2,26.2,137.3,36.5c6.5,0.9,12.5,3.5,19.4,2.4c-5.5-3.5-13.1-3.1-19.1-6.3
					c-36.1-12.7-41.4-51.8-61.1-78.2c25.1,16.6,46.1,39.1,69.3,60.9c16.6,14.6,36.6,21.3,57.7,25.6c-5.1,1.9-11.7,1.3-17.1,2.8
					c-37.9,9.3-80,24.5-120.1,10.9C473.9,838.1,447,817.4,433.8,791.7L433.8,791.7z"/>
				<path fill="#FFFFFF" d="M903.7,883.5c-39,14.6-79.7-0.7-110.2-23.8c-12.3-7.8-23.2-19.1-39.2-18.1c-5.8-0.1-11.4,0.2-16.3,1.6
					c29.6,13.8,57.1,32.8,82.2,57c-4.2,4.8-9.7,9.4-14.9,13.5c-24.2-26.1-51.1-51.2-81.1-65.9c-5.9,0.8-11.5,4.3-16.8,7.2
					c-24.5,15.5-48.6,35.4-66.8,59.7l-15.6-12.9c24.9-25.2,52.5-44.9,82.7-58.9c-29.6-9.4-49,15.4-71.5,28.1
					c-26.2,18.3-63.9,26.9-95.6,14.3c-17-6.5-33.6-16-45.9-31.5c24.9,17.2,62.1,19,90.5,7.8c38.1-16.5,77.6-37.4,123.5-27.4
					c7.2,0.1,14.1,7.3,20.9,1.2c34.1-8.9,72.7-2.8,102.1,12.8l30.3,12.1c28.1,10.4,64.5,7.5,88.6-9.6
					C938.1,866.2,921.2,877.2,903.7,883.5L903.7,883.5z"/>
				<path fill="#FFFFFF" d="M945.5,843.2c-43.8,16.5-87.9-3.8-129.8-10.5l-8.1-1v-0.3c20.1-4.6,39.5-10.5,55.5-24.9
					c23.5-22.6,44.5-45.9,70.6-63.7c-19.4,24.8-21.4,60.2-53.4,76.2c-7.9,5.2-17.9,6.1-26.1,10c11.7,0.3,22.3-3.9,33.9-5.1
					c42.9-6.7,92,0.2,122.1-36.4C999,812.9,971,834.2,945.5,843.2L945.5,843.2z"/>
				<path fill="#FFFFFF" d="M1025.1,719.9c-17.3,11.3-34.8,21.8-51.5,34.7V753c25.5-42.3,13-100.4,28.7-147l5.9-15.6
					c-3.3,29,9.3,53.6,8.4,82.7c-0.9,17.6-6.6,33.2-15.9,47.2h1.6c12.5-16.4,22.2-33.8,36.8-49.4c22.6-21.8,45.6-44.2,48.6-74.5
					C1095.4,647,1067,691.3,1025.1,719.9L1025.1,719.9z"/>
			</g>
		</g>
	</g>
	<g>
		<path fill="#FFFFFF" d="M585.3,347.7c-9,36-22.1,69.2-41.1,100.2c14.9,9.6,28.4,15.9,41.1,18.7l-15.8,54.2
			c-20.3-5-41.1-14.6-62.3-28.7c-22.1,17.8-48.8,28.7-81.7,28.7c-61.4,0-94.3-39.2-94.3-84.7c0-39.2,22.1-62.9,47.4-81.5
			c-12.2-23.2-19-45.1-19-63.8c0-42.4,28-77.9,72.7-77.9c44.2,0,70.9,26.4,70.9,67.4c0,37.8-28.4,61-56,82.9
			c14.4,18.7,33.4,36.9,52.8,52.8c10.8-19.1,19.4-41.9,24.8-68.3H585.3z M434.1,469.7c9.9,0,19.4-3.6,28.9-10.5
			c-20.8-18.2-40.2-38.7-56-60.6c-8.1,10-13.1,21-13.1,33.2C393.9,454.2,410.1,469.7,434.1,469.7z M422.8,324.4
			c16.7-12.3,29.3-25.5,29.3-44.2c0-14.1-5-23.2-18.5-23.2c-11.3,0-19.4,12.8-19.4,33.2C414.2,301.2,417.4,312.6,422.8,324.4z"/>
	</g>
	<g>
		<path fill="#FFFFFF" d="M336.9,598.4c7.1,5.3,14.7,8.7,24.6,8.7c10,0,14.5-3.5,14.5-8.3s-5.9-7.7-18.7-11.4
			c-12.2-3.5-23.4-9.4-23.4-19.8c0-12.1,10.1-20.6,28.1-20.6c10.3,0,19.9,4.5,26.4,9.1l-6.9,10c-5.7-4.1-12.2-6.9-19.4-6.9
			c-9.8,0-13.3,3.2-13.3,7.6c0,4.9,7.6,7.6,17.8,10.4c14.7,4.2,24.3,9.4,24.3,20.8c0,11.8-10.5,21.3-29.7,21.3
			c-11.9,0-23.3-4.8-31.2-10.7L336.9,598.4z"/>
		<path fill="#FFFFFF" d="M406.7,598.4c7.1,5.3,14.7,8.7,24.6,8.7c10,0,14.5-3.5,14.5-8.3s-5.9-7.7-18.7-11.4
			c-12.2-3.5-23.4-9.4-23.4-19.8c0-12.1,10.1-20.6,28.1-20.6c10.3,0,19.9,4.5,26.4,9.1l-6.9,10c-5.7-4.1-12.2-6.9-19.4-6.9
			c-9.8,0-13.3,3.2-13.3,7.6c0,4.9,7.6,7.6,17.8,10.4c14.7,4.2,24.3,9.4,24.3,20.8c0,11.8-10.5,21.3-29.7,21.3
			c-11.9,0-23.3-4.8-31.2-10.7L406.7,598.4z"/>
		<path fill="#FFFFFF" d="M496.5,547c7.5,0,12.5,3.1,17.7,8.1l-0.6-11.7v-25h15v99.1h-12.3l-1.2-8h-0.4c-4.9,5.3-12,9.7-19.1,9.7
			c-16.3,0-27.1-13.3-27.1-36.1C468.4,560.8,482,547,496.5,547z M499.2,606c5.3,0,10-2.7,14.3-8.3v-31c-4.5-4.6-8.9-6.3-13.6-6.3
			c-8.8,0-16.2,8.3-16.2,22.7C483.8,598,489.5,606,499.2,606z"/>
		<path fill="#FFFFFF" d="M576.9,547c10.2,0,18.2,4.2,23.5,9.7l-7.1,10.1c-4.9-4.4-10-6.6-15.6-6.6c-12.7,0-21.5,9.1-21.5,23
			c0,13.8,8.5,22.9,21.1,22.9c7.2,0,13.2-3.5,18.1-7.6l6.2,10.4c-7.2,6.9-16.7,10.4-25.7,10.4c-19.9,0-35-13.2-35-36.1
			C540.8,560.2,557.5,547,576.9,547z"/>
	</g>
	<g>
		<path fill="#FFFFFF" d="M208.4,424.5L312.3,354v22l-83.8,56.5v1.1l83.8,56.5v22l-103.9-70.5V424.5z"/>
	</g>
	<g>
		<path fill="#FFFFFF" d="M720.9,441.8L617,512.2v-22l83.8-56.5v-1.1L617,376v-22l103.9,70.5V441.8z"/>
	</g>
</g>
</svg>
